<svg xmlns="http://www.w3.org/2000/svg" width="60" height="52.225" viewBox="0 0 60 52.225">
  <g id="_2_Icon_Sales" data-name="2_Icon_Sales" transform="translate(353 -280.775)">
    <path id="Path_356670" data-name="Path 356670" d="M-300.1,283.1a113.939,113.939,0,0,0-45.8,0,9.032,9.032,0,0,0-7.1,8.5v3.3a6.018,6.018,0,0,0,6,6h8a6.018,6.018,0,0,0,6-6v-1.1a111.335,111.335,0,0,1,20,0v1.1a5.6,5.6,0,0,0,1.8,4.2,5.988,5.988,0,0,0,4.2,1.8v0h8a6.018,6.018,0,0,0,6-6v-3.3A9.032,9.032,0,0,0-300.1,283.1ZM-295,295a4.012,4.012,0,0,1-4,4h-8a3.631,3.631,0,0,1-2.8-1.2A3.949,3.949,0,0,1-311,295v-2a1.063,1.063,0,0,0-.9-1,104.606,104.606,0,0,0-11.1-.6,104.607,104.607,0,0,0-11.1.6,1.063,1.063,0,0,0-.9,1v2a3.631,3.631,0,0,1-1.2,2.8A3.949,3.949,0,0,1-339,299h-8a4.012,4.012,0,0,1-4-4v-3.3a7.125,7.125,0,0,1,5.5-6.6,113.625,113.625,0,0,1,45,0,7.125,7.125,0,0,1,5.5,6.6Z" fill="#999"/>
    <path id="Path_356671" data-name="Path 356671" d="M-317,303.4v-4.2a.945.945,0,0,0-1-1,.945.945,0,0,0-1,1v4.1h-8.1v-4.1a.945.945,0,0,0-1-1,.945.945,0,0,0-1,1v4.2c-10.3,1.1-18,10-18,21V332a.945.945,0,0,0,1,1h46a.945.945,0,0,0,1-1v-7.6C-299,313.4-306.7,304.5-317,303.4Zm16,27.6h-44v-6.6c0-10.8,8-19.2,18.2-19.2h7.6c10.2,0,18.2,8.4,18.2,19.2V331Z" fill="#999"/>
    <path id="Path_356672" data-name="Path 356672" d="M-323,309a10.029,10.029,0,0,0-10,10,10.029,10.029,0,0,0,10,10,10.029,10.029,0,0,0,10-10A10.029,10.029,0,0,0-323,309Zm0,18a8.024,8.024,0,0,1-8-8,8.024,8.024,0,0,1,8-8,8.024,8.024,0,0,1,8,8A8.024,8.024,0,0,1-323,327Z" fill="#999"/>
  </g>
</svg>
