<svg xmlns="http://www.w3.org/2000/svg" xmlns:xlink="http://www.w3.org/1999/xlink" preserveAspectRatio="none" viewBox="0 0 400 120"><defs><linearGradient id="linear-gradient" x1="-1748.38" y1="-44.3" x2="-1749.01" y2="-44.3" gradientTransform="translate(181927.72 5547.85) scale(104 124)" gradientUnits="userSpaceOnUse"><stop offset="0" stop-color="#d5d5d5"/><stop offset="1" stop-color="#f0f0f0"/></linearGradient><radialGradient id="radial-gradient" cx="-1714.11" cy="-154" r="0.44" gradientTransform="matrix(-0.93, 17.82, -17.74, -0.91, -4262.82, 30457.32)" gradientUnits="userSpaceOnUse"><stop offset="0" stop-color="#fff"/><stop offset="0.15" stop-color="#fff"/><stop offset="0.37" stop-color="#c85353"/><stop offset="1" stop-color="#ae0000"/></radialGradient><radialGradient id="radial-gradient-2" cx="-1707.01" cy="-166.15" r="0.5" gradientTransform="matrix(-0.73, 15.85, -15.77, -0.72, -3785.95, 26977.98)" xlink:href="#radial-gradient"/></defs><path d="M90.1,110H9.5a2.26,2.26,0,0,1-2.3-1.7l-3.6-9.6A3.82,3.82,0,0,1,3.3,97V96c.3-2.8,14.7-12.4,20.4-16a55.12,55.12,0,0,1-3.6-11.3c-2.1-.3-4.7-1.4-7.8-4.7-2.8-3-3.9-8.2-3.9-11.8A15.44,15.44,0,0,1,12,42c-1.6-7.4-1.3-13.2,1-17a10.8,10.8,0,0,1,3.4-3.6C18.6,13,27.1,9.13,29.1,8c2.1-1.6,11.6-8.5,27.6-8,21.7.8,35.1,15.1,36.7,39a48.61,48.61,0,0,1,.3,6.6c0,17.9-5.9,28.9-9,33.3,11.6,8.5,11.6,9.9,11.6,11.3.3,3.6-2.8,14.3-3.9,17.6a2.36,2.36,0,0,1-2.3,2.2Z" style="fill:url(#linear-gradient)"/><path d="M55.7,51.53a8,8,0,1,0-8.1-8A8.11,8.11,0,0,0,55.7,51.53Z" style="stroke:#263238;stroke-width:4px;fill-rule:evenodd;fill:url(#radial-gradient)"/><path d="M83.4,51.53c4,0,7.2-3.6,7.2-8s-3.2-8-7.2-8-7.2,3.6-7.2,8S79.5,51.53,83.4,51.53Z" style="stroke:#263238;stroke-width:4px;fill-rule:evenodd;fill:url(#radial-gradient-2)"/><path d="M85.3,91.53c-.6-4.3-2.2-6.3-5.9-6.3h-.6c-1.1.3-2.8,1-7.6,5l-2.8,2.3a5.19,5.19,0,0,0-2.2-.7,5.31,5.31,0,0,0-3.6,1.7l-2.8-1.7-4.8-3c-2.5-1.3-5-2.3-7-2.3a6.3,6.3,0,0,0-3.6,1c-1.4,1.3-2,3.3-1.7,6,0,1.3.3,3,.3,4.3.6,7,.8,11.9,6.4,12.3h.8a15.55,15.55,0,0,0,10.1-4.3l2.5-2a5.09,5.09,0,0,0,3.1,1.3,6.1,6.1,0,0,0,3.4-1.3l3.9,1a27.58,27.58,0,0,0,4.5.7h1.1a6.56,6.56,0,0,0,4.2-1c1.7-1,2.5-3.3,2.5-7,0-1.7-.3-3.3-.3-4.6Z" style="fill:#f44336"/><path d="M42.4,97.13c0-1.1-.3-2.3-.3-3.7a6.35,6.35,0,0,1,.5-4c-13.5-.3-17.8-7.7-17.8-7.7s-.8,4.6,3,9.7a22.59,22.59,0,0,0,14.3,8h.5A4.71,4.71,0,0,0,42.4,97.13Z" style="fill:#fff"/><path d="M46.2,106.53l-1.9-3.7a22.39,22.39,0,0,1-.8-2.9L43.2,98l-1.9-.3a22.68,22.68,0,0,1-12.6-7.2,16.63,16.63,0,0,1-2.7-5.3l-1-3.6-3,1.9C16.7,87,7.9,92.63,4.9,95l-1.6,1.3,4,10.1H46.2Z" style="fill:#546e7a"/><path d="M17.3,110h29l-1.9-3.9a24.63,24.63,0,0,1-.8-3l-.3-1.9-1.9-.3c-2.4-.6-8.4-2.2-12.7-7.5-.3-.3-.5-.8-.8-1.1L14,101.73Z" style="fill:#455a64"/><path d="M97.5,90a116.3,116.3,0,0,0-9.9-6.9l-2.2-1.4a23.51,23.51,0,0,1-4.2,3.5l2.2,2A6.88,6.88,0,0,1,85.3,91v.9a17.11,17.11,0,0,1,.3,4c0,4.9-1.9,5.8-2.9,6.1a6.23,6.23,0,0,1-2.6.6l.3,5.8H93.5l.6-2c1.6-4.6,3.5-11.3,3.8-14.2v-1.4Z" style="fill:#546e7a"/><path d="M93.6,106.53l.5-1.8c.8-2.1,1.4-4.9,2.2-7.2l-10-5.2c0,.8.3,1.8.3,2.8,0,4.4-1.6,5.2-2.4,5.4a4.77,4.77,0,0,1-2.2.5l.3,5.2Z" style="fill:#455a64"/><path d="M11.3,45.83h0l.3-.3a8.73,8.73,0,0,1,4.9-2,7.72,7.72,0,0,1,3.3.9c3.6,2,4.4,5.7,4.7,8.3v.6c1.6-.6,3.3-1.1,3.8-1.4a4.54,4.54,0,0,0-.3-1.7,27.27,27.27,0,0,0-1.1-4c-1.1-3.1-.8-7.1.8-12.3l.3-.6a15.78,15.78,0,0,0,.8-3.1,14.59,14.59,0,0,1,.3-2,9.48,9.48,0,0,0-.5-2.3l-.6-1.5.8-1.4c2.5-4.3,11.5-18.6,29.8-18.6H60a8.19,8.19,0,0,0-3.8-.9H54.3a44.23,44.23,0,0,0-25.5,7.7l-.3.3-.3.3c-1.6.6-10.1,4.3-11.8,12l-.5.9-1.1.6a5.73,5.73,0,0,0-2.5,2.6c-1.9,3.4-2.2,8.6-.8,15.7l.3,1.4-1.1,1.4-.3.3Z" style="fill:#616161"/><path d="M60.6,102.93H78.5V110H60.6ZM23.4,53.23c-.3-2.5-1.1-4.7-2.9-5.8a5.37,5.37,0,0,0-2.1-.5,4.86,4.86,0,0,0-4.2,2.5l-1.9-5.5a13.24,13.24,0,0,1,6.6-2.2,11.4,11.4,0,0,1,4,.8,10.59,10.59,0,0,1,2.9,2.2,28.15,28.15,0,0,1,1.3-11.3c.5-1.4.8-2.7,1.1-3.6a3,3,0,0,0-.5-2.8,49.74,49.74,0,0,0-9.3,1.9L17,23.83a85,85,0,0,1,11.7-2.2l1.9-.3.8,1.6s.3.3.3.5a8.18,8.18,0,0,1,2.1,5.2,8.35,8.35,0,0,1-.3,2.5c-.3,1.4-.8,2.5-1.1,4.1-1.1,3.3-1.9,7.2-.8,9.9.5,1.6.8,3.3,1.1,4.4s.5,3.6-.5,4.4-7.2,2.8-7.2,2.8A4.79,4.79,0,0,1,23.4,53.23Z" style="fill:#263238"/><path d="M32.4,26.63l-5-2.4c0-.3,10.2-24.2,35.8-22.4l-.2,6C40.9,6.63,32.4,26.63,32.4,26.63Z" style="fill:#263238"/><path d="M46.2,89.33c-13.4,0-17.8-7.7-17.8-7.7s-.8,4.6,2.9,9.7a21.66,21.66,0,0,0,13.9,8" style="fill:#fff"/><path d="M44.6,102.93a25.48,25.48,0,0,1-16.1-9.1c-4.6-6.2-3.8-11.4-3.5-11.9l1.4-7.4L30.2,81c.3.3,4.1,6.2,16.1,6.2V93c-5.7,0-10.1-1.1-13.3-2.8v.3a20,20,0,0,0,12.5,6.8Z" style="fill:#263238"/><path d="M80.5,106.53h-.8a35.43,35.43,0,0,1-9.4-1.6l1.8-5.1a25.46,25.46,0,0,0,7.3,1.3h.3a11.27,11.27,0,0,0,3.4-.3c.8-.5.8-2.4.8-3.5s-.3-2.4-.3-3.5V93c-.3-2.1-1-2.9-3.1-2.9-1.6.3-6.5,4-8.4,5.3l-1.3,1.1-3.1-4.3,1-.8c5-3.7,8.9-6.4,11.5-6.4,4.7,0,7.6,2.7,8.4,7.5v.8c.3,1.1.3,2.7.5,4,0,4-1,6.9-3.7,8a7.62,7.62,0,0,1-4.9,1.2ZM51.2,110h-.7c-6.8-.5-7.3-6.8-7.5-12.5,0-1.1-.2-2.2-.2-3.3-.5-4.4,1.2-6.5,2.4-7.6,3.1-2.5,7.8-1.4,11.3.5l7.1,4.4-2.1,4.9L54.3,92c-2.8-1.6-5.6-1.9-6.3-1.1a3.89,3.89,0,0,0-.5,2.5,21.14,21.14,0,0,1,.2,3.5c.5,6.5.9,7.4,3.3,7.6,4.9.5,9.9-4.9,9.9-5.2l3.3,3.8C63.7,103.73,58,110,51.2,110Z" style="fill:#263238"/><path d="M62.9,92.33c-9,0-16-2.3-23.5-8.8-4.2-3.6-4.2-8.4-3.6-8.8s1.4,2.7,4.8,5.7c6.7,5.9,16.2,7.7,24.4,7.3,10.6-.7,18.1-7.8,18.9-8.2l1.8,2.4a28.1,28.1,0,0,1-20.2,10.4Z" style="fill:#263238"/><path d="M93.2,110H6.4a2.5,2.5,0,0,1-2.5-1.7L0,98.73c-.3-.8,17.9-12.7,24-16.2-1.9-4.1-4.7-10.1-5.3-12.9-2.2-.3-5-1.4-8.3-4.7-3.1-3-4.2-8.2-4.2-11.8A18.92,18.92,0,0,1,11,42c-1.7-7.4-1.4-13.2,1.1-17a12.22,12.22,0,0,1,3.6-3.6C17.9,13,27.1,9.13,29.3,8,31.6,6.43,39.7.33,57,.93c2.6.1,4.8-.4,7.2,0,19,3.3,31.2,16.9,32.6,38.1a94.8,94.8,0,0,1,.4,10.6c-1,17.8-4.7,24-8.1,28.4,12.5,8.5,10.7,10.8,10.7,12.1.3,3.6-1.9,14.8-3.1,18.1C96.6,109.73,94.3,110,93.2,110Zm-83.5-3.5H93a97.87,97.87,0,0,0,3.4-13c-1.7-1.7-13.7-13-13.2-13.5-1.2,0,10.1-10.2,10.3-32.3a46.45,46.45,0,0,0-.3-6.3c-2-28.7-22.4-33.7-34.5-34.2-16.8-.6-23,5-23.3,5.3s-3.9,2.2-4.2,2.4c0,0-9.8,2.4-10.7,9.9-.3,1.1-1.1,3.1-2.2,3.4-2,.6-5,4.7-2,16.3a2.59,2.59,0,0,1-.8,2.8,8.9,8.9,0,0,0-3.1,7.2c0,3.3,1.1,6.6,2.8,8.3,3.4,3.6,5.9,3,5.9,3A2.51,2.51,0,0,1,24.4,68s1.4,8.6,5,14.1a2.76,2.76,0,0,1,.3,2.2A2.43,2.43,0,0,1,28.3,86c-2,1.1-17.7,11-21.6,13.8Z" style="fill:#263238"/><path d="M65.9,104.73a7.1,7.1,0,1,1,7.2-7.1A7,7,0,0,1,65.9,104.73Zm0-11.6a4.52,4.52,0,0,0-4.5,4.4,4.5,4.5,0,1,0,4.5-4.4Z" style="fill:#263238"/><path d="M61,29.33l-13-4m26.9,4.4,11.3-4" style="fill:none;stroke:#263238;stroke-linecap:square;stroke-width:4px"/><path d="M68.7,48.33l2.8-.3c.6-.1,1.2.9,1.3,2.1l1.8,6.7c.2,1.2-.3,2.3-1.1,2.3l-6,.3c-.8.1-1.4-.9-1.4-2.1l1.3-6.7C67.6,49.43,68.2,48.43,68.7,48.33Z" style="fill:#191919;fill-rule:evenodd"/><path d="M50.7,63a72.78,72.78,0,0,0,17.4,2.2c3.8,0,9-1,15.7-3.1v8.4c-3.9,5.6-9.1,8.4-15.7,8.4-11,0-12.8-2.7-17.4-6.3Z" style="fill:#fff;stroke:#263238;stroke-linejoin:round;stroke-width:3px;fill-rule:evenodd"/><path d="M50.7,67.73a34.88,34.88,0,0,0,16.6,4.1,24.34,24.34,0,0,0,15.6-5.3" style="fill:none;stroke:#263238;stroke-linecap:round;stroke-linejoin:round;stroke-width:2px"/><path d="M57.3,64.83v12.4m6.1-12.4V79m5.2-12.9v12m5.2-13.3v13.3M79,63v12.4" style="fill:none;stroke:#263238;stroke-width:2px"/></svg>