<svg xmlns="http://www.w3.org/2000/svg" width="40" height="40" viewBox="0 0 40 40"><defs><style>.a{fill:rgba(255,255,255,0);}.b{fill:#1b959a;}</style></defs><g transform="translate(-18 -11)"><rect class="a" width="40" height="40" transform="translate(18 11)"/><g transform="translate(-226.998 -1111)"><path class="b" d="M17648.279,21041.564h-11.6a1.682,1.682,0,0,1-1.684-1.674v-14.215a1.682,1.682,0,0,1,1.684-1.676h11.6a1.99,1.99,0,0,0-.777,1.586v14.395a2,2,0,0,0,.775,1.582Zm-10.848-7.187v1.949c0,1.162,2.117,1.77,4.209,1.77s4.209-.607,4.209-1.77v-1.949a8.868,8.868,0,0,1-8.418,0Zm0-3.543v1.949c0,1.164,2.117,1.773,4.209,1.773s4.209-.609,4.209-1.773v-1.949a8.839,8.839,0,0,1-8.418,0Zm4.209-3.363c-2.092,0-4.209.607-4.209,1.77s2.117,1.773,4.209,1.773,4.209-.609,4.209-1.773S17643.732,21027.471,17641.641,21027.471Z" transform="translate(-17384 -19891)"/><path class="b" d="M16.384,5.433v11.46H4.673V2.673H13.54ZM13.623,1H4.673A1.678,1.678,0,0,0,3,2.673v14.22a1.678,1.678,0,0,0,1.673,1.673H16.384a1.678,1.678,0,0,0,1.673-1.673V5.182a1.543,1.543,0,0,0-.418-1l-3.011-2.76a1.385,1.385,0,0,0-1-.418Z" transform="translate(261 1132)"/><path class="b" d="M9.192,12.585a7.772,7.772,0,0,1-.477.635c-.077.091-.152.175-.225.25a1.265,1.265,0,0,1-.739.468.237.237,0,0,1-.169-.061.34.34,0,0,1-.048-.054.232.232,0,0,1-.043-.12.268.268,0,0,1,0-.068.408.408,0,0,1,.021-.073,1,1,0,0,1,.236-.326q.044-.043.094-.088a6.552,6.552,0,0,1,1.592-.942Q9.315,12.405,9.192,12.585Zm5.545-1.673a3.773,3.773,0,0,1,.705.054.47.47,0,0,1,.386.271.335.335,0,0,1,.015.09.449.449,0,0,1-.009.106c-.037.189-.232.311-.5.311a1.007,1.007,0,0,1-.105-.013.9.9,0,0,1-.12-.015,3.671,3.671,0,0,1-1.43-.724c.11-.017.216-.03.316-.041a7.019,7.019,0,0,1,.742-.041Zm-2.13-.225c-.283.059-.576.128-.872.207-.213.056-.429.118-.646.184.115-.235.22-.468.312-.69.121-.293.235-.585.34-.872.092.144.187.284.284.419s.194.261.294.385.2.241.3.354l-.025.006ZM11.143,5.637a.314.314,0,0,1,.023-.031.262.262,0,0,1,.205-.116.238.238,0,0,1,.153.051.668.668,0,0,1,.151.5,3.58,3.58,0,0,1-.048.543,8.832,8.832,0,0,1-.205.944q-.035.129-.074.262a5.529,5.529,0,0,1-.231-.767A3.843,3.843,0,0,1,11.03,6.4a2.258,2.258,0,0,1,.021-.468.868.868,0,0,1,.093-.293Zm5.6,5.762a.843.843,0,0,0-.05-.214.763.763,0,0,0-.151-.25,1.154,1.154,0,0,0-.287-.22,3.126,3.126,0,0,0-1.489-.285c-.213,0-.44.01-.68.031s-.491.052-.755.093a7.116,7.116,0,0,1-.827-.964,8.789,8.789,0,0,1-.517-.8q.115-.36.2-.686c.034-.128.063-.25.091-.37q.057-.255.1-.484c.018-.106.033-.208.044-.306a4.139,4.139,0,0,0,.029-.471,1.582,1.582,0,0,0-.512-1.3.856.856,0,0,0-.166-.095A1,1,0,0,0,11.38,5,.749.749,0,0,0,11,5.108a.8.8,0,0,0-.284.282,1.74,1.74,0,0,0-.183.877,3.726,3.726,0,0,0,.033.43,6.073,6.073,0,0,0,.486,1.669c-.047.139-.095.277-.144.415-.1.277-.2.554-.317.842-.057.144-.117.29-.179.44a15.2,15.2,0,0,1-.724,1.5,6.751,6.751,0,0,0-2.439,1.5,1.108,1.108,0,0,0-.239.477A.791.791,0,0,0,7,13.736a.72.72,0,0,0,.118.35.816.816,0,0,0,.128.15.85.85,0,0,0,.194.132l.055.026a1.021,1.021,0,0,0,.178.06,1.156,1.156,0,0,0,.269.031,1.357,1.357,0,0,0,.577-.14,2.264,2.264,0,0,0,.378-.229,4.356,4.356,0,0,0,.722-.7,8.775,8.775,0,0,0,.65-.888c.151-.233.293-.471.422-.7q.295-.1.594-.191c.2-.06.4-.117.6-.17l.127-.031c.392-.1.773-.187,1.133-.251q.1.089.2.169.2.16.4.285.1.063.191.118a3.5,3.5,0,0,0,1.756.523,1.293,1.293,0,0,0,.72-.175.778.778,0,0,0,.1-.082.713.713,0,0,0,.183-.275.764.764,0,0,0,.049-.238A.831.831,0,0,0,16.746,11.4Z" transform="translate(260 1132.039)"/></g></g></svg>