<svg xmlns="http://www.w3.org/2000/svg" width="40" height="40" viewBox="0 0 40 40"><defs><style>.a{fill:rgba(255,255,255,0);}.b,.c{fill:#8383ff;}.c,.d{stroke:#8383ff;}.c{stroke-linecap:round;stroke-linejoin:round;}.d,.f{fill:none;}.e{stroke:none;}</style></defs><g transform="translate(22 -13)"><rect class="a" width="40" height="40" transform="translate(-22 13)"/><g transform="translate(-3 -10)"><path class="b" d="M17339,19902h-6a2,2,0,0,1-2-2v-17a2,2,0,0,1,2-2h9a2.005,2.005,0,0,1,1.992.863l2.594,2.379.184.184.014.014.006,0a2.975,2.975,0,0,1,1.215,2.205V19891h-6a3,3,0,0,0-3,3v8Zm-2.5-12a.5.5,0,0,0,0,1h2a.5.5,0,0,0,0-1h-.5v-5h2v.5a.5.5,0,0,0,.5.5.5.5,0,0,0,.5-.5v-1a.5.5,0,0,0-.5-.5h-6a.5.5,0,0,0-.5.5v1a.5.5,0,1,0,1,0v-.5h2v5Z" transform="translate(-17342 -19849)"/><g transform="translate(-0.5 42.5)"><path class="c" d="M0,11.869,2.813,9.018,4.42,10.7,8.438,6.5l3.683,3.759v1.508" transform="translate(1)"/><circle class="c" cx="1" cy="1" r="1" transform="translate(3.5 4.5)"/><g class="d" transform="translate(-0.5 1.5)"><rect class="e" width="15" height="11" rx="2"/><rect class="f" x="0.5" y="0.5" width="14" height="10" rx="1.5"/></g></g></g></g></svg>