<svg xmlns="http://www.w3.org/2000/svg" width="18" height="21" viewBox="0 0 18 21"><defs><style>.a,.b{fill:#d7373f;}.a{opacity:0.1;}</style></defs><g transform="translate(-3 -1)"><path class="a" d="M19,6.3V20H5V3H15.6Z"/><path class="b" d="M19,6.3V20H5V3H15.6ZM15.7,1H5A2.006,2.006,0,0,0,3,3V20a2.006,2.006,0,0,0,2,2H19a2.006,2.006,0,0,0,2-2V6a1.845,1.845,0,0,0-.5-1.2L16.9,1.5A1.656,1.656,0,0,0,15.7,1Z"/><path class="b" d="M9.192,12.585a7.772,7.772,0,0,1-.477.635c-.077.091-.152.175-.225.25a1.265,1.265,0,0,1-.739.468.237.237,0,0,1-.169-.061.34.34,0,0,1-.048-.054.232.232,0,0,1-.043-.12.268.268,0,0,1,0-.068.408.408,0,0,1,.021-.073,1,1,0,0,1,.236-.326q.044-.043.094-.088a6.552,6.552,0,0,1,1.592-.942Q9.315,12.405,9.192,12.585Zm5.545-1.673a3.773,3.773,0,0,1,.705.054.47.47,0,0,1,.386.271.335.335,0,0,1,.015.09.449.449,0,0,1-.009.106c-.037.189-.232.311-.5.311a1.007,1.007,0,0,1-.105-.013.9.9,0,0,1-.12-.015,3.671,3.671,0,0,1-1.43-.724c.11-.017.216-.03.316-.041a7.019,7.019,0,0,1,.742-.041Zm-2.13-.225c-.283.059-.576.128-.872.207-.213.056-.429.118-.646.184.115-.235.22-.468.312-.69.121-.293.235-.585.34-.872.092.144.187.284.284.419s.194.261.294.385.2.241.3.354l-.025.006ZM11.143,5.637a.314.314,0,0,1,.023-.031.262.262,0,0,1,.205-.116.238.238,0,0,1,.153.051.668.668,0,0,1,.151.5,3.58,3.58,0,0,1-.048.543,8.832,8.832,0,0,1-.205.944q-.035.129-.074.262a5.529,5.529,0,0,1-.231-.767A3.843,3.843,0,0,1,11.03,6.4a2.258,2.258,0,0,1,.021-.468.868.868,0,0,1,.093-.293Zm5.6,5.762a.843.843,0,0,0-.05-.214.763.763,0,0,0-.151-.25,1.154,1.154,0,0,0-.287-.22,3.126,3.126,0,0,0-1.489-.285c-.213,0-.44.01-.68.031s-.491.052-.755.093a7.116,7.116,0,0,1-.827-.964,8.789,8.789,0,0,1-.517-.8q.115-.36.2-.686c.034-.128.063-.25.091-.37q.057-.255.1-.484c.018-.106.033-.208.044-.306a4.139,4.139,0,0,0,.029-.471,1.582,1.582,0,0,0-.512-1.3.856.856,0,0,0-.166-.095A1,1,0,0,0,11.38,5,.749.749,0,0,0,11,5.108a.8.8,0,0,0-.284.282,1.74,1.74,0,0,0-.183.877,3.726,3.726,0,0,0,.033.43,6.073,6.073,0,0,0,.486,1.669c-.047.139-.095.277-.144.415-.1.277-.2.554-.317.842-.057.144-.117.29-.179.44a15.2,15.2,0,0,1-.724,1.5,6.751,6.751,0,0,0-2.439,1.5,1.108,1.108,0,0,0-.239.477A.791.791,0,0,0,7,13.736a.72.72,0,0,0,.118.35.816.816,0,0,0,.128.15.85.85,0,0,0,.194.132l.055.026a1.021,1.021,0,0,0,.178.06,1.156,1.156,0,0,0,.269.031,1.357,1.357,0,0,0,.577-.14,2.264,2.264,0,0,0,.378-.229,4.356,4.356,0,0,0,.722-.7,8.775,8.775,0,0,0,.65-.888c.151-.233.293-.471.422-.7q.295-.1.594-.191c.2-.06.4-.117.6-.17l.127-.031c.392-.1.773-.187,1.133-.251q.1.089.2.169.2.16.4.285.1.063.191.118a3.5,3.5,0,0,0,1.756.523,1.293,1.293,0,0,0,.72-.175.778.778,0,0,0,.1-.082.713.713,0,0,0,.183-.275.764.764,0,0,0,.049-.238A.831.831,0,0,0,16.746,11.4Z"/></g></svg>