<svg xmlns="http://www.w3.org/2000/svg" viewBox="0 0 56 54"><defs><style>.cls-1{fill:#49021f;}.cls-2{fill:#f36;}</style></defs><title>Asset 96</title><g id="Layer_2" data-name="Layer 2"><g id="Surfaces"><g id="Publishing_Surface" data-name="Publishing Surface"><g id="Outline_no_shadow" data-name="Outline no shadow"><rect class="cls-1" width="56" height="54" rx="9.91383"/></g></g></g><g id="Outlined_Mnemonics_Logos" data-name="Outlined Mnemonics &amp; Logos"><g id="Id"><path class="cls-2" d="M19.95821,14.3125V37.5q0,.3706-.333.37012H15.3918c-.19824,0-.2959-.123-.2959-.37012V14.3125c0-.19727.11035-.29614.333-.29614h4.2334A.26171.26171,0,0,1,19.95821,14.3125Z"/><path class="cls-2" d="M33.69747,38.37231A11.46779,11.46779,0,0,1,28.758,37.33618a7.85047,7.85047,0,0,1-3.459-3.12646,10.00139,10.00139,0,0,1-1.2583-5.2356A9.66238,9.66238,0,0,1,25.299,24.1272a9.23151,9.23151,0,0,1,3.66308-3.552,11.82191,11.82191,0,0,1,5.8086-1.332q.18456,0,.481.01856c.19727.01269.6294.03125.90137.05542V12.3125c0-.17212.07373-.25879.22217-.25879h4.29a.19618.19618,0,0,1,.22168.22192V33.85815q0,.62952.05566,1.36914.05566.74049.09229,1.33179a.38177.38177,0,0,1-.22217.37012,16.91856,16.91856,0,0,1-3.563,1.11011A20.0701,20.0701,0,0,1,33.69747,38.37231ZM36.153,33.78418V23.68311a6.86749,6.86749,0,0,0-.80908-.11084,7.33448,7.33448,0,0,0-.7583-.03711,5.71243,5.71243,0,0,0-2.58984.592,4.75958,4.75958,0,0,0-2.70118,4.625,6.51814,6.51814,0,0,0,.38868,2.36792A4.50934,4.50934,0,0,0,30.719,32.74829a3.94929,3.94929,0,0,0,1.5542.92481,6.08789,6.08789,0,0,0,1.90576.29614c.34473,0,.666-.01221.96192-.03711A6.18858,6.18858,0,0,0,36.153,33.78418Z"/></g></g></g></svg>