<svg xmlns="http://www.w3.org/2000/svg" viewBox="0 0 56 54"><defs><style>.a{fill:#584ccc;}.b{fill:#fff;}</style></defs><rect class="a" width="56" height="54" rx="9.914"/><path class="b" d="M45.042,31.162c-1.112-1.2-3.24-1.8-6.324-1.8a33.4,33.4,0,0,0-5.109.443,25.326,25.326,0,0,1-2.942-3.434,31.406,31.406,0,0,1-1.842-2.861c1.086-3.419,1.967-6.195,1.967-8.252,0-2.526-1.331-5.227-4.14-5.227a4.519,4.519,0,0,0-3.068,1.678c-1.2,2.058,0,6,1.911,10.309C24.829,24,24.1,25.923,23.214,28.059a53.99,53.99,0,0,1-2.578,5.354c-2.865,1.153-8.955,3.951-9.535,7.043a2.617,2.617,0,0,0,.833,2.462,3.628,3.628,0,0,0,2.482.886c3.668,0,7.325-5.079,9.788-9.45,1.4-.476,2.828-.908,4.249-1.284,1.559-.413,3.066-.751,4.487-1,3.884,3.389,7.337,3.9,9.066,3.9,2.378,0,3.267-1.031,3.591-1.9A2.905,2.905,0,0,0,45.042,31.162Zm-2.529,1.782c-.131.673-.826,1.109-1.779,1.109a3.365,3.365,0,0,1-.8-.1,13.094,13.094,0,0,1-5.094-2.578,25.31,25.31,0,0,1,3.769-.29,13.5,13.5,0,0,1,2.511.193C41.873,31.433,42.725,31.85,42.513,32.944ZM25.808,12.3a.965.965,0,0,1,.811-.524c.889,0,1.51,1.332,1.51,2.229.008,1.429-.852,3.444-1.592,5.963C25.045,16.012,25.253,13.244,25.808,12.3ZM31.02,30.284c-1.008.212-2.05.457-3.107.736-.759.2-1.529.421-2.3.655.409-.837.785-1.667,1.113-2.455.431-1.042.837-2.084,1.209-3.1.327.513.666,1.012,1.012,1.492A29.722,29.722,0,0,0,31.1,30.264ZM19.736,35.69c-2.348,3.78-4.658,6.168-6.009,6.168a.842.842,0,0,1-.6-.216.88.88,0,0,1-.309-.863C13.072,39.425,15.747,37.472,19.736,35.69Z"/></svg>