<svg xmlns="http://www.w3.org/2000/svg" viewBox="0 0 56 54"><defs><style>.cls-1{fill:#00005b;}.cls-2{fill:#99f;}</style></defs><title>Asset 145</title><g id="Layer_2" data-name="Layer 2"><g id="Surfaces"><g id="Video_Audio_Surface" data-name="Video/Audio Surface"><g id="Outline_no_shadow" data-name="Outline no shadow"><rect class="cls-1" width="56" height="54" rx="9.91383"/></g></g></g><g id="Outlined_Mnemonics_Logos" data-name="Outlined Mnemonics &amp; Logos"><g id="Ae"><path class="cls-2" d="M22.5793,32H14.03194l-1.73877,5.63574a.43574.43574,0,0,1-.44434.333H7.51973q-.36987,0-.25879-.407l7.40039-21.01441q.1106-.33288.22168-.75854a7.90048,7.90048,0,0,0,.14795-1.49854.22929.22929,0,0,1,.25928-.259h5.88281c.17188,0,.271.062.2959.18506l8.39893,23.38232q.1106.3706-.22217.37012H24.83614a.34159.34159,0,0,1-.37012-.259ZM15.364,28.0625h5.84619c-.14844-.49316-.32129-1.50537-.51855-2.12231q-.29591-.92433-.62891-1.9795-.33252-1.05432-.666-2.10888-.33252-1.0547-.61035-2.03516-.27686-.98-.499-1.79443H18.2502a29.83825,29.83825,0,0,1-.77734,2.96q-.51856,1.66516-1.05469,3.40405C16.06075,25.5459,15.70918,27.07617,15.364,28.0625Z"/><path class="cls-2" d="M43.4351,29.98128H36.146a5.63771,5.63771,0,0,0,.75261,2.11931,3.80513,3.80513,0,0,0,1.6831,1.38769,7.272,7.272,0,0,0,3.00179.63672,10.1101,10.1101,0,0,0,2.06706-.16235,9.9519,9.9519,0,0,0,2.16455-.64746q.18457-.14759.18506.18481v3.51514a.54714.54714,0,0,1-.05566.27758.52738.52738,0,0,1-.16651.16651,10.37274,10.37274,0,0,1-2.40527.79541,14.85734,14.85734,0,0,1-2.99658.11767,10.55588,10.55588,0,0,1-4.40284-.8142,7.84894,7.84894,0,0,1-2.88623-2.18287,8.55432,8.55432,0,0,1-1.59082-3.01562,11.87375,11.87375,0,0,1-.48095-3.34839,11.66057,11.66057,0,0,1,.57373-3.64453,9.50937,9.50937,0,0,1,1.72021-3.145,8.2628,8.2628,0,0,1,2.7749-2.18286,8.67742,8.67742,0,0,1,3.84815-.79566,9.26155,9.26155,0,0,1,3.76221.7426,6.45492,6.45492,0,0,1,2.42334,1.90552,8.40948,8.40948,0,0,1,1.36865,2.60839,9.29931,9.29931,0,0,1,.44433,2.812q0,.81408-.05566,1.48a6.3713,6.3713,0,0,1-.14225.785.335.335,0,0,1-.333.29614c-.14746,0-.40088.01856-.75781.05542-.3584.03711-.99366.0223-1.52344.03451Q44.32182,29.98177,43.4351,29.98128Zm-7.3099-2.93961h4.84668q.88842,0,1.31348-.01831a2.60659,2.60659,0,0,0,.53662-.05567v-.22192a6.23342,6.23342,0,0,0-.07764-1.32365,3.02284,3.02284,0,0,0-2.99707-2.10889,3.2151,3.2151,0,0,0-3.05273,1.739A7.767,7.767,0,0,0,36.1252,27.04167Z"/></g></g></g></svg>