<svg xmlns="http://www.w3.org/2000/svg" viewBox="0 0 56 54"><defs><style>.cls-1{fill:#000b1d;}.cls-2{fill:#fff;}</style></defs><title>Asset 140</title><g id="Layer_2" data-name="Layer 2"><g id="Surfaces"><g id="Utility_Surface" data-name="Utility Surface"><g id="Outline_no_shadow" data-name="Outline no shadow"><rect class="cls-1" width="56" height="54" rx="9.91383"/></g></g></g><g id="Outlined_Mnemonics_Logos" data-name="Outlined Mnemonics &amp; Logos"><g id="Br"><path class="cls-2" d="M13.01485,37.56177V13.5437c0-.22217.07422-.34521.22168-.37012q.62914-.03625,1.92431-.05542,1.2942-.0183,2.812-.03711,1.51611-.0183,2.7749-.01855a14.24785,14.24785,0,0,1,4.82861.666,7.15745,7.15745,0,0,1,2.75635,1.68359,4.39062,4.39062,0,0,1,1.29541,1.78931,14.74788,14.74788,0,0,1,.333,3.00366,5.9087,5.9087,0,0,1-.37012,2.16455,5.779,5.779,0,0,1-.88818,1.57251,4.21953,4.21953,0,0,1-.999.92505,7.38033,7.38033,0,0,1,1.46143,1.01758,6.03052,6.03052,0,0,1,1.38769,1.83154,6.27645,6.27645,0,0,1,.416,2.84888,6.36362,6.36362,0,0,1-1.06348,3.92211,7.82237,7.82237,0,0,1-3.55224,2.53809,14.61912,14.61912,0,0,1-5.53174.94336h-2.46q-1.166,0-2.14649-.01855-.98-.01905-1.70166-.03687-.72142-.01905-1.23974-.01855Q13.01437,37.85853,13.01485,37.56177ZM17.9792,18.06543V23.2085l2.54639.03076c.666,0,1.33887-.06787,1.98047-.0437a6.85459,6.85459,0,0,1,1.36914.14819,2.96933,2.96933,0,0,0,.77637-.91846,3.138,3.138,0,0,0,.31445-1.48,2.60949,2.60949,0,0,0-.48144-1.62817,2.87437,2.87437,0,0,0-1.38721-.94336,7.17621,7.17621,0,0,0-2.3125-.3147H19.71211q-.48192,0-.87011.01856C18.58321,18.09033,18.2751,18.06543,17.9792,18.06543Zm-.104,9.70435v6.199c.41895.0249.97266.05249,1.39258.06445q.62841.01905,1.51709.01856a9.78737,9.78737,0,0,0,2.68213-.333,3.8138,3.8138,0,0,0,1.75781-1.30347,2.86981,2.86981,0,0,0,.86914-1.739,3.38044,3.38044,0,0,0-.75781-1.739c-.32129-.49317-.91309-.68653-1.77637-.90845a9.05989,9.05989,0,0,0-1.01758-.18506,10.76665,10.76665,0,0,0-1.35058-.074Z"/><path class="cls-2" d="M35.08154,19.61328h3.848a.5037.5037,0,0,1,.48145.36987,1.8042,1.8042,0,0,1,.18457.51807,5.96412,5.96412,0,0,1,.11133.72144q.03661.38854.0371.83252a8.63435,8.63435,0,0,1,2.46-1.9795,6.92883,6.92883,0,0,1,3.42285-.83252.2945.2945,0,0,1,.333.333v4.477c0,.17285-.124.259-.37011.259a9.34574,9.34574,0,0,0-4.34766.77685,4.39748,4.39748,0,0,0-1.32515.85108L39.9143,37.66663q0,.33288-.2959.333H35.412a.32707.32707,0,0,1-.37011-.37011l.00256-12.72522q0-.81372-.01855-1.72071-.01905-.906-.05518-1.79443a11.77467,11.77467,0,0,0-.14844-1.51685.21272.21272,0,0,1,.25928-.259Z"/></g></g></g></svg>