<?xml version="1.0" encoding="utf-8"?>
<!-- Generator: Adobe Illustrator 24.1.2, SVG Export Plug-In . SVG Version: 6.00 Build 0)  -->
<svg version="1.1" id="Layer_1" xmlns="http://www.w3.org/2000/svg" xmlns:xlink="http://www.w3.org/1999/xlink" x="0px" y="0px"
	 viewBox="0 0 256 256" style="enable-background:new 0 0 256 256;" xml:space="preserve">
<style type="text/css">
	.st0{fill-rule:evenodd;clip-rule:evenodd;fill:#DBDCDD;}
	.st1{fill:#510F17;}
</style>
<g>
	<rect y="3.2" class="st0" width="256" height="249.60001"/>
	<g>
		<path class="st1" d="M123.31924,156.49962l29.89995,51.79202c24.90817-7.90408,44.72044-27.19585,53.29991-51.79202H123.31924z
			 M128,45.79192c-5.19999,0-10.29588,0.46782-15.23562,1.4041l41.75481,72.38379l29.84917-51.73997
			C169.54788,54.16383,149.73561,45.79192,128,45.79192z M191.18066,74.96379L149.6315,147.0356h59.59171
			c1.3-5.82397,1.97665-11.85582,1.97665-18.04382C211.19986,108.3997,203.71217,89.5237,191.18066,74.96379z M102.00005,138.50784
			l-30.05611,51.99992C86.71237,203.97556,106.41927,212.19164,128,212.19164c5.35614,0,10.60818-0.52019,15.70407-1.50787
			L102.00005,138.50784z M46.77679,110.99969c-1.3,5.77191-1.97665,11.80408-1.97665,17.99208
			c0,20.79997,7.64383,39.83179,20.3315,54.39203l41.75609-72.38411H46.77679z M103.14389,49.58781
			c-25.06304,7.79999-45.03147,27.2479-53.663,51.94786H133.2L103.14389,49.58781z"/>
	</g>
</g>
</svg>
