<svg id="Layer_1" data-name="Layer 1" xmlns="http://www.w3.org/2000/svg" viewBox="0 0 48 48"><defs><style>.cls-1{fill:#fa0f00;}.cls-2{fill:#fff;}</style></defs><title>ec_helpx_48Artboard 1</title><rect class="cls-1" y="0.6" width="48" height="46.8" rx="8.5"/><path id="_256" data-name="256" class="cls-2" d="M37.32341,35.79007H31.62212a1.24864,1.24864,0,0,1-1.16931-.75382L24.26343,20.56442a.27274.27274,0,0,0-.52229-.0068l-3.85721,9.1885a.327.327,0,0,0,.30132.45388h4.23984a.65392.65392,0,0,1,.60211.39882l1.85628,4.1309a.7625.7625,0,0,1-.70156,1.06035H10.7468a.70365.70365,0,0,1-.64258-.98087l9.81792-23.38045A1.3278,1.3278,0,0,1,21.1686,10.6h5.66271a1.32562,1.32562,0,0,1,1.24658.82875L37.96377,34.8092A.70343.70343,0,0,1,37.32341,35.79007Z"/></svg>