<?xml version="1.0" encoding="UTF-8"?>
<svg xmlns="http://www.w3.org/2000/svg" xmlns:xlink="http://www.w3.org/1999/xlink" width="75pt" height="73pt" viewBox="0 0 75 73" version="1.1">
<g id="surface1">
<path style=" stroke:none;fill-rule:nonzero;fill:rgb(0%,4.313725%,11.372549%);fill-opacity:1;" d="M 13.28125 0 L 61.71875 0 C 69.054688 0 75 5.945312 75 13.28125 L 75 59.84375 C 75 67.179688 69.054688 73.125 61.71875 73.125 L 13.28125 73.125 C 5.945312 73.125 0 67.179688 0 59.84375 L 0 13.28125 C 0 5.945312 5.945312 0 13.28125 0 Z M 13.28125 0 "/>
<path style=" stroke:none;fill-rule:nonzero;fill:rgb(98.039216%,5.882353%,0%);fill-opacity:1;" d="M 58.316406 54.984375 L 49.410156 54.984375 C 48.617188 55 47.894531 54.535156 47.582031 53.804688 L 37.914062 31.195312 C 37.859375 31.011719 37.695312 30.890625 37.507812 30.886719 C 37.320312 30.882812 37.152344 31.003906 37.09375 31.183594 L 31.070312 45.542969 C 31.003906 45.699219 31.019531 45.878906 31.113281 46.019531 C 31.207031 46.164062 31.367188 46.25 31.539062 46.25 L 38.164062 46.25 C 38.574219 46.25 38.945312 46.496094 39.105469 46.871094 L 42.003906 53.328125 C 42.160156 53.695312 42.125 54.117188 41.902344 54.449219 C 41.683594 54.78125 41.308594 54.984375 40.910156 54.984375 L 16.792969 54.984375 C 16.421875 54.984375 16.082031 54.792969 15.878906 54.488281 C 15.675781 54.179688 15.640625 53.792969 15.789062 53.453125 L 31.128906 16.917969 C 31.449219 16.128906 32.222656 15.617188 33.078125 15.625 L 41.921875 15.625 C 42.777344 15.613281 43.550781 16.128906 43.871094 16.917969 L 59.320312 53.453125 C 59.464844 53.789062 59.429688 54.175781 59.230469 54.488281 C 59.027344 54.792969 58.6875 54.980469 58.316406 54.984375 Z M 58.316406 54.984375 "/>
</g>
</svg>
