<svg xmlns="http://www.w3.org/2000/svg" viewBox="0 0 56 54"><defs><style>.cls-1{fill:#001e36;}.cls-2{fill:#31a8ff;}</style></defs><title>Asset 127</title><g id="Layer_2" data-name="Layer 2"><g id="Surfaces"><g id="Photo_Surface" data-name="Photo Surface"><g id="Outline_no_shadow" data-name="Outline no shadow"><rect class="cls-1" width="56" height="54" rx="9.91383"/></g></g></g><g id="Outlined_Mnemonics_Logos" data-name="Outlined Mnemonics &amp; Logos"><g id="Lr"><path class="cls-2" d="M28.95007,37.999H14.372q-.36987,0-.36963-.407L14.01965,14.374a.29411.29411,0,0,1,.333-.333h4.28875a.22914.22914,0,0,1,.25879.259l.06,18.78h10.72q.33326,0,.25879.333l-.61929,4.253a.35273.35273,0,0,1-.14746.27759A.49653.49653,0,0,1,28.95007,37.999Z"/><path class="cls-2" d="M33.05,19.61328h4.03321a.50356.50356,0,0,1,.481.36987,1.80244,1.80244,0,0,1,.18506.51807,6.06171,6.06171,0,0,1,.11084.72144q.03663.38854.03711.83252a8.64361,8.64361,0,0,1,2.46045-1.9795,6.25119,6.25119,0,0,1,3.24258-.83252.29451.29451,0,0,1,.333.333v4.477c0,.17285-.124.259-.37012.259a7.79955,7.79955,0,0,0-2.24355.1665,9.111,9.111,0,0,0-1.92383.61035,5.51208,5.51208,0,0,0-1.49912.85108V37.6601q0,.3329-.29639.333H33.383a.32707.32707,0,0,1-.37011-.37012V24.9043q0-.81372-.01856-1.72071-.019-.906-.05518-1.79443a11.69837,11.69837,0,0,0-.14794-1.51685.21258.21258,0,0,1,.25878-.259Z"/></g></g></g></svg>