<?xml version="1.0" encoding="utf-8"?>
<!-- Generator: Adobe Illustrator 24.0.1, SVG Export Plug-In . SVG Version: 6.00 Build 0)  -->
<svg version="1.1" id="Layer_1" xmlns="http://www.w3.org/2000/svg" xmlns:xlink="http://www.w3.org/1999/xlink" x="0px" y="0px"
	 viewBox="0 0 56 54" style="enable-background:new 0 0 56 54;" xml:space="preserve">
<style type="text/css">
	.st0{fill:#00005B;}
	.st1{fill:#9999FF;}
</style>
<g id="Layer_2_1_">
	<g id="Surfaces">
		<g id="Video_Audio_Surface">
			<g id="Outline_no_shadow">
				<path class="st0" d="M9.9,0h36.2C51.6,0,56,4.4,56,9.9v34.2c0,5.5-4.4,9.9-9.9,9.9H9.9C4.4,54,0,49.6,0,44.1V9.9
					C0,4.4,4.4,0,9.9,0z"/>
			</g>
		</g>
	</g>
	<g id="Outlined_Mnemonics_Logos">
		<g id="Pr">
			<path class="st1" d="M13.2,37.5V13.9c0-0.2,0.1-0.3,0.2-0.3c0.4,0,0.9,0,1.4,0c0.5,0,1.1,0,1.8,0c0.6,0,1.3,0,2,0
				c0.7,0,1.6,0.2,2.3,0.2c1.6,0,3.2,0.2,4.7,0.7c1.2,0.4,2.2,1,3.1,1.9c0.7,0.7,1.3,1.6,1.7,2.6c0.3,1,0.5,2,0.5,3
				c0.1,1.7-0.4,3.4-1.4,4.9c-0.9,1.3-2.2,2.3-3.7,2.8c-1.7,0.6-3.4,0.9-5.2,0.9c-0.5,0-0.9,0-1.1,0c-0.2,0-1.1-0.2-1.6-0.2v7.3
				c0,0.2-0.1,0.3-0.3,0.3c0,0-0.1,0-0.1,0h-4.1C13.3,37.8,13.2,37.7,13.2,37.5z M18,18v7.7c0.3,0,1.2,0.2,1.5,0.2h1.2
				c0.9,0,1.8-0.1,2.6-0.4c0.7-0.2,1.4-0.6,1.9-1.2c0.5-0.7,0.8-1.5,0.7-2.4c0-0.7-0.2-1.4-0.5-2c-0.4-0.6-1-1.1-1.6-1.3
				c-0.9-0.3-1.8-0.5-2.7-0.5c-0.6,0-1.1,0-1.6,0C19,18.2,18.1,18,18,18z"/>
			<path class="st1" d="M34.1,19.6h4c0.2,0,0.4,0.2,0.5,0.4c0.1,0.2,0.2,0.3,0.2,0.5c0.1,0.2,0.1,0.5,0.1,0.7c0,0.3,0,0.5,0,0.8
				c0.7-0.8,1.5-1.5,2.5-2c1-0.6,2.1-0.9,3.2-0.8c0.2,0,0.3,0.1,0.3,0.2c0,0,0,0.1,0,0.1v4.5c0,0.2-0.1,0.3-0.4,0.3
				c-0.8-0.1-1.5,0-2.2,0.2c-0.7,0.1-1.3,0.3-1.9,0.6c-0.5,0.2-1.1,0.5-1.5,0.9v11.7c0,0.2-0.1,0.3-0.3,0.3h-4.2
				c-0.2,0-0.3-0.1-0.4-0.3c0,0,0-0.1,0-0.1V24.9c0-0.5,0-1.1,0-1.7c0-0.6,0-1.2-0.1-1.8c0-0.5-0.1-1-0.1-1.5c0-0.1,0-0.1,0.1-0.2
				C33.9,19.6,34,19.6,34.1,19.6z"/>
		</g>
	</g>
</g>
</svg>
