<svg xmlns="http://www.w3.org/2000/svg" viewBox="0 0 56 54"><defs><style>.cls-1{fill:#300;}.cls-2{fill:#ff9a00;}</style></defs><title>Asset 103</title><g id="Layer_2" data-name="Layer 2"><g id="Surfaces"><g id="Drawing_Surface" data-name="Drawing Surface"><g id="Outline_no_shadow" data-name="Outline no shadow"><rect class="cls-1" width="56" height="54" rx="9.91383"/></g></g></g><g id="Outlined_Mnemonics_Logos" data-name="Outlined Mnemonics &amp; Logos"><g id="Ai"><path class="cls-2" d="M27.146,31.95833H18.59916L16.85306,37.667a.43519.43519,0,0,1-.44384.333h-4.3291q-.36989,0-.25928-.407L19.19942,16.2832q.11133-.33288.22168-.75854a5.15364,5.15364,0,0,0,.14844-1.26563A.22894.22894,0,0,1,19.82833,14h5.88281c.17236,0,.27148.062.2959.18506l8.42122,23.44482q.11059.3706-.22217.37012H29.396a.34223.34223,0,0,1-.37011-.259Zm-7.26237-3.9375H26.146c-.14795-.49316-.6569-1.63305-.85416-2.25-.19776-.61621-.46843-1.107-.6906-1.81014q-.33324-1.05432-.666-2.10888-.33325-1.0547-.61035-2.03516-.27759-.98-.49951-1.79443h-.03711a29.70351,29.70351,0,0,1-.77735,2.96q-.51855,1.66516-1.0542,3.40405C20.59883,25.5459,20.22839,27.03451,19.88366,28.02083Z"/><path class="cls-2" d="M39.43282,17.68921a2.68465,2.68465,0,0,1-2.03516-.814,2.92738,2.92738,0,0,1-.77734-2.10913,2.71474,2.71474,0,0,1,.833-2.05346,2.85845,2.85845,0,0,1,2.05322-.79541,2.75164,2.75164,0,0,1,2.09033.79541,2.8545,2.8545,0,0,1,.75879,2.05346,2.88926,2.88926,0,0,1-.7959,2.10913A2.83785,2.83785,0,0,1,39.43282,17.68921ZM37.03715,37.45833V20.54167c0-.22217.09814-.333.29638-.333h4.2041q.29591,0,.2959.333V37.45833q0,.37061-.2959.37012H37.37015Q37.03691,37.82845,37.03715,37.45833Z"/></g></g></g></svg>