<svg xmlns="http://www.w3.org/2000/svg" viewBox="0 0 56 54"><defs><style>.cls-1{fill:#00005b;}.cls-2{fill:#99f;}</style></defs><title>Asset 147</title><g id="Layer_2" data-name="Layer 2"><g id="Surfaces"><g id="Video_Audio_Surface" data-name="Video/Audio Surface"><g id="Outline_no_shadow" data-name="Outline no shadow"><rect class="cls-1" width="56" height="54" rx="9.91383"/></g></g></g><g id="Outlined_Mnemonics_Logos" data-name="Outlined Mnemonics &amp; Logos"><g id="An"><path class="cls-2" d="M23.01908,31.95833H14.4722L12.72611,37.667a.4352.4352,0,0,1-.44385.333H7.95316q-.36987,0-.25928-.407L15.07246,16.2832q.11133-.33288.22168-.75854a5.15364,5.15364,0,0,0,.14844-1.26563A.22894.22894,0,0,1,15.70137,14h5.88281c.17236,0,.27148.062.2959.18506L30.3013,37.62988q.11059.3706-.22217.37012H25.26908a.34224.34224,0,0,1-.37012-.259Zm-7.26237-3.9375h6.26237c-.14795-.49316-.6569-1.63305-.85417-2.25-.19775-.61621-.46842-1.107-.69059-1.81014q-.33325-1.05432-.666-2.10888-.33325-1.0547-.61035-2.03516-.27759-.98-.49951-1.79443h-.03711a29.70321,29.70321,0,0,1-.77734,2.96q-.51856,1.66516-1.0542,3.40405C16.47188,25.5459,16.10143,27.03451,15.75671,28.02083Z"/><path class="cls-2" d="M32.084,37.63814l-.0649-13.73287c0-.41919.19653-1.09106.18432-1.60888-.01269-.51807-.03125-1.23413-.05517-1.70288q-.03809-.7024-.07422-1.11011a.21939.21939,0,0,1,.03711-.22193.3.3,0,0,1,.22168-.074h4.13834a.82608.82608,0,0,1,.37012.074.34845.34845,0,0,1,.18506.259q.07325.22192.166.49951a3.09461,3.09461,0,0,1,.12989.68433,6.28409,6.28409,0,0,1,2.29923-1.21859,8.4,8.4,0,0,1,2.7749-.46265,4.7202,4.7202,0,0,1,1.75017.35156,5.68463,5.68463,0,0,1,2.01611,1.16553A6.27063,6.27063,0,0,1,47.337,22.99878a10.28323,10.28323,0,0,1,.55469,3.6814l.0649,10.958q0,.3329-.2959.333H43.42952a.32689.32689,0,0,1-.37012-.37012l-.0649-10.47676a4.6258,4.6258,0,0,0-.333-1.887,2.64779,2.64779,0,0,0-.94336-1.14721,1.56042,1.56042,0,0,0-1.15788-.407,4.59759,4.59759,0,0,0-1.73876.31469,7.34078,7.34078,0,0,0-1.88815.86939l.0649,12.77095q0,.3329-.2959.333H32.417A.2943.2943,0,0,1,32.084,37.63814Z"/></g></g></g></svg>