<svg xmlns="http://www.w3.org/2000/svg" viewBox="0 0 56 54"><defs><style>.cls-1{fill:#00005b;}.cls-2{fill:#99f;}</style></defs><title>Asset 142</title><g id="Layer_2" data-name="Layer 2"><g id="Surfaces"><g id="Video_Audio_Surface" data-name="Video/Audio Surface"><g id="Outline_no_shadow" data-name="Outline no shadow"><rect class="cls-1" width="56" height="54" rx="9.91383"/></g></g></g><g id="Outlined_Mnemonics_Logos" data-name="Outlined Mnemonics &amp; Logos"><g id="Au"><path class="cls-2" d="M22.09834,31.97917H13.551l-1.73877,5.667a.43521.43521,0,0,1-.44385.333H7.03926q-.37061,0-.25879-.407L14.18038,16.537q.1106-.3329.22216-.75855A7.91162,7.91162,0,0,0,14.55,14.27987a.2293.2293,0,0,1,.25928-.259h5.8833c.17188,0,.27051.062.2959.18506l8.39844,23.40316q.11133.3706-.22168.37012H24.35518a.34137.34137,0,0,1-.36963-.259ZM14.883,28.04167H21.0627c-.14795-.49317-.5319-1.52889-.72917-2.14584-.19726-.61621-.34082-1.29687-.5625-2-.22168-.70288-.445-1.33878-.66666-2.04166-.22168-.70313-.37793-1.38786-.5625-2.04167-.18506-.65332-.24789-1.22811-.39584-1.77083l-.37679-.01945a29.95952,29.95952,0,0,1-.77685,2.96q-.51857,1.66516-1.05469,3.40405C15.57979,25.5459,15.22872,27.05534,14.883,28.04167Z"/><path class="cls-2" d="M46.97774,20.29028l-.08984,13.556q0,.92505.01855,1.64649.01832.72143.07422,1.25805.05566.5365.09228.9065c.02393.19751-.062.2959-.25927.2959l-3.81055.049a.4341.4341,0,0,1-.44385-.259,5.70309,5.70309,0,0,1-.12939-.57348,3.30857,3.30857,0,0,1-.05567-.57349,6.52474,6.52474,0,0,1-2.44629,1.55225A10.01054,10.01054,0,0,1,37.3752,38.5a8.42273,8.42273,0,0,1-2.625-.41667,4.65393,4.65393,0,0,1-1.97754-1.12589,7.02077,7.02077,0,0,1-1.29492-2.45182,10.16056,10.16056,0,0,1-.4624-3.27442V20.31673a.26159.26159,0,0,1,.29638-.2959h4.35157a.26163.26163,0,0,1,.29589.2959V30.63916a3.83285,3.83285,0,0,0,.666,2.38647,3.12307,3.12307,0,0,0,2.40625,1.06812,5.19816,5.19816,0,0,0,1.71549-.47607,4.89239,4.89239,0,0,0,1.29493-.75855V20.27987q0-.25855.333-.259l4.34408.01042A.22923.22923,0,0,1,46.97774,20.29028Z"/></g></g></g></svg>