<svg xmlns="http://www.w3.org/2000/svg" viewBox="0 0 56 54"><defs><style>.cls-1{fill:#470137;}.cls-2{fill:#ff61f6;}</style></defs><title>Asset 107</title><g id="Layer_2" data-name="Layer 2"><g id="Surfaces"><g id="UI_UX_Surface" data-name="UI/UX Surface"><g id="Outline_no_shadow" data-name="Outline no shadow"><rect class="cls-1" width="56" height="54" rx="9.91383"/></g></g></g><g id="Outlined_Mnemonics_Logos" data-name="Outlined Mnemonics &amp; Logos"><g id="Dw"><path class="cls-2" d="M5.212,37.59849v-23.532a.26547.26547,0,0,1,.24631-.2959,16.94927,16.94927,0,0,1,1.763-.27183q1.01934-.01831,2.3903-.03711,1.37073-.01831,2.91727-.01855a14.46867,14.46867,0,0,1,6.99465,1.51709A9.97054,9.97054,0,0,1,23.689,19.1228a12.90794,12.90794,0,0,1,1.38835,6.08643,14.238,14.238,0,0,1-.72039,4.71753,11.14556,11.14556,0,0,1-1.96865,3.53345,11.85635,11.85635,0,0,1-2.82959,2.46044,12.10151,12.10151,0,0,1-3.37417,1.44312,14.15668,14.15668,0,0,1-3.55044.4624H10.01559q-1.38882,0-2.58327-.01855c-.79693-.0127-1.6108.18516-2.00926.161C5.28251,37.96861,5.212,37.84556,5.212,37.59849ZM9.8127,17.99414V33.31226c.25745,0,.95853.00634,1.16959.01855.21106.0127.42722.02466.65034.03687.2222.01269.47454.01855.75564.01855a8.98732,8.98732,0,0,0,3.12832-.51807,6.34957,6.34957,0,0,0,2.40747-1.554,7.03235,7.03235,0,0,0,1.547-2.553,10.13828,10.13828,0,0,0,.545-3.44092,9.10014,9.10014,0,0,0-.52742-3.23755,6.03415,6.03415,0,0,0-3.91922-3.7185,9.93619,9.93619,0,0,0-3.04064-.44409q-.70345,0-1.17776.01855C11.03471,17.95142,10.2107,17.97,9.8127,17.99414Z"/><path class="cls-2" d="M45.96666,37.80136H41.66541a.32723.32723,0,0,1-.27518-.09253,1.12067,1.12067,0,0,1-.1376-.27758c-.43593-1.84986-1.00414-3.28281-1.302-4.70151q-.44751-2.12733-.73973-3.60743-.29289-1.47948-.4818-2.51611-.18936-1.03527-.29244-1.739h-.03451q-.34467,1.51758-.63665,2.9414-.2929,1.42493-.63665,2.86768-.344,1.44287-.77379,3.18188c-.287,1.15967-.40131,2.2169-.74552,3.5731-.04632.24707-.1721.37011-.37872.37011H30.92954a.51769.51769,0,0,1-.327-.074.62269.62269,0,0,1-.1544-.259l-4.67464-17.11c-.06857-.197.02271-.2959.27519-.2959H30.3845q.30993,0,.34421.22192c.45864,2.02295.84281,3.3191,1.15251,4.78638q.46455,2.20166.72293,3.75537.25815,1.5542.43,2.53443.17234.98108.27564,1.60961h.06857a9.406,9.406,0,0,1,.17211-1.073q.1369-.66615.3442-1.72046.20571-1.0547.51586-2.49756.30993-1.44287.70568-3.34839c.26338-1.27026.613-2.27051,1.04943-3.89844a.776.776,0,0,1,.08582-.2959c.03451-.04931.12079-.074.25793-.074h4.50787c.13759,0,.21751.08667.24113.259.38961,1.67749.71657,2.70191.9804,3.97217q.39575,1.90612.68842,3.36694.29222,1.46229.44729,2.51612.15462,1.05432.29244,1.77588a11.29962,11.29962,0,0,1,.1721,1.16552h.06857q.17166-.70239.3097-1.62793.13759-.92431.36147-2.09057.22341-1.16529.4818-2.57154.25815-1.40551.63619-3.145c.25248-1.15894.539-1.96778.86053-3.32471q.06879-.29553.30969-.2959h4.02607c.20661,0,.28654.11084.24113.333L46.37989,37.46836a.80994.80994,0,0,1-.138.259A.37606.37606,0,0,1,45.96666,37.80136Z"/></g></g></g></svg>