<svg xmlns="http://www.w3.org/2000/svg" viewBox="0 0 56 54"><defs><style>.cls-1{fill:#001e36;}.cls-2{fill:#31a8ff;}</style></defs><title>Asset 117</title><g id="Layer_2" data-name="Layer 2"><g id="Surfaces"><g id="Photo_Surface" data-name="Photo Surface"><g id="Outline_no_shadow" data-name="Outline no shadow"><rect class="cls-1" width="56" height="54" rx="9.91383"/></g></g></g><g id="Outlined_Mnemonics_Logos" data-name="Outlined Mnemonics &amp; Logos"><g id="Ps"><path class="cls-2" d="M11.63571,37.7063V14.06323c0-.17236.07422-.259.22217-.259q.59106,0,1.40576-.01856.81372-.0183,1.75781-.03686.94336-.01831,1.99805-.03711,1.05468-.01831,2.09033-.01855a13.90366,13.90366,0,0,1,4.73584.70312,8.22066,8.22066,0,0,1,3.08984,1.887,7.24021,7.24021,0,0,1,1.6836,2.6084,8.66365,8.66365,0,0,1,.51757,2.97852,8.21981,8.21981,0,0,1-1.36914,4.884,7.73031,7.73031,0,0,1-3.6997,2.79346,14.72217,14.72217,0,0,1-5.18018.86963q-.81445,0-1.14648-.01856-.33325-.01832-.999-.01855v7.28906a.2945.2945,0,0,1-.333.333H11.895Q11.6357,38.0022,11.63571,37.7063Zm5.10644-19.46216v7.65894q.48048.03735.8877.03711h1.2207a8.72661,8.72661,0,0,0,2.64551-.36988,3.99058,3.99058,0,0,0,1.88769-1.22119,3.55281,3.55281,0,0,0,.7212-2.36792,3.74033,3.74033,0,0,0-.53662-2.03491A3.45133,3.45133,0,0,0,21.959,18.63281a6.85543,6.85543,0,0,0-2.70117-.46264q-.8877,0-1.57227.01855Q17,18.20777,16.74215,18.24414Z"/><path class="cls-2" d="M43.53986,24.4231a13.0493,13.0493,0,0,0-2.66564-.77686,11.68613,11.68613,0,0,0-2.57129-.29614,4.79162,4.79162,0,0,0-1.38769.1665,1.2462,1.2462,0,0,0-.72168.46265,1.16569,1.16569,0,0,0-.18457.6289.9824.9824,0,0,0,.22168.59205,2.52063,2.52063,0,0,0,.77734.61059,15.472,15.472,0,0,0,1.62793.7583,16.142,16.142,0,0,1,3.53321,1.6836,5.37415,5.37415,0,0,1,1.813,1.90551,5.07861,5.07861,0,0,1,.53662,2.36792,5.31526,5.31526,0,0,1-.88818,3.05249,5.83656,5.83656,0,0,1-2.57129,2.05347,10.3516,10.3516,0,0,1-4.1626.74023,15.04788,15.04788,0,0,1-3.12646-.29614,11.45955,11.45955,0,0,1-2.49805-.74.47883.47883,0,0,1-.25879-.44409V32.89624a.21749.21749,0,0,1,.09278-.20361.17935.17935,0,0,1,.20312.01855,10.80533,10.80533,0,0,0,2.99756,1.12842,11.7417,11.7417,0,0,0,2.70117.35156,4.15006,4.15006,0,0,0,1.90528-.333,1.04519,1.04519,0,0,0,.61035-.96191,1.22388,1.22388,0,0,0-.55469-.925,9.19418,9.19418,0,0,0-2.25732-1.073,13.60639,13.60639,0,0,1-3.27442-1.665,5.63914,5.63914,0,0,1-1.73877-1.94238,5.09656,5.09656,0,0,1-.53711-2.34961,5.30352,5.30352,0,0,1,.77735-2.7749A5.64634,5.64634,0,0,1,34.344,20.05713a7.6279,7.6279,0,0,1,3.74425-.93447,23.40265,23.40265,0,0,1,3.12.04534,10.64682,10.64682,0,0,1,2.443.81515.3364.3364,0,0,1,.22168.20362,1.01923,1.01923,0,0,1,.0371.27734v3.73706a.24881.24881,0,0,1-.11084.22193A.24266.24266,0,0,1,43.53986,24.4231Z"/></g></g></g></svg>