<?xml version="1.0" encoding="utf-8"?>
<!-- Generator: Adobe Illustrator 24.0.1, SVG Export Plug-In . SVG Version: 6.00 Build 0)  -->
<svg version="1.1" id="Layer_1" xmlns="http://www.w3.org/2000/svg" xmlns:xlink="http://www.w3.org/1999/xlink" x="0px" y="0px"
	 viewBox="0 0 56 54" style="enable-background:new 0 0 56 54;" xml:space="preserve">
<style type="text/css">
	.st0{fill:#000B1D;}
	.st1{fill:#FFFFFF;}
</style>
<path class="st0" d="M9.9,0h36.2C51.6,0,56,4.4,56,9.9v34.2c0,5.5-4.4,9.9-9.9,9.9H9.9C4.4,54,0,49.6,0,44.1V9.9C0,4.4,4.4,0,9.9,0z
	"/>
<path class="st1" d="M20.8,38.4c-1.3,0-2.5-0.1-3.8-0.4c-0.9-0.2-1.8-0.5-2.7-0.9c-0.2-0.1-0.3-0.4-0.3-0.6v-4.4
	c0-0.1,0-0.2,0.1-0.2c0.1,0,0.2,0,0.2,0c1,0.6,2,1.1,3.1,1.4c1.1,0.3,2.3,0.5,3.4,0.5c1,0.1,2.1-0.1,3-0.6c0.6-0.3,0.9-1,0.9-1.6
	c0-0.4-0.1-0.8-0.3-1.1c-0.3-0.4-0.6-0.7-1-1c-0.6-0.4-1.3-0.7-2-1l-1.9-0.8c-1.3-0.5-2.5-1.2-3.5-2.1c-0.7-0.6-1.3-1.4-1.6-2.4
	c-0.3-0.9-0.5-1.8-0.5-2.7c0-1.3,0.3-2.5,1-3.6c0.6-1.1,1.6-2,2.8-2.6c1.5-0.7,3.2-1,4.9-0.9c1.1,0,2.2,0.1,3.3,0.2
	c0.9,0.1,1.7,0.3,2.5,0.7c0.2,0.1,0.3,0.3,0.3,0.5V19c0,0.1,0,0.1-0.1,0.2c-0.1,0.1-0.1,0.1-0.2,0c-0.8-0.4-1.7-0.7-2.6-0.9
	c-1-0.2-2-0.3-3.1-0.3c-0.6,0-1.2,0.1-1.8,0.2c-0.4,0.1-0.8,0.3-1.2,0.5c-0.3,0.2-0.5,0.4-0.7,0.7c-0.1,0.3-0.2,0.6-0.2,0.9
	c0,0.4,0.1,0.7,0.3,1.1c0.3,0.4,0.7,0.7,1.1,0.9c0.7,0.4,1.4,0.8,2.2,1.1l1.4,0.5c1.4,0.5,2.7,1.2,3.8,2.1c0.8,0.6,1.5,1.5,1.9,2.4
	c0.4,0.9,0.6,1.9,0.6,2.8c0,1.4-0.4,2.7-1.2,3.8c-0.8,1.1-1.9,2-3.2,2.5C24.2,38.1,22.5,38.4,20.8,38.4z"/>
<path class="st1" d="M42.6,34.3v3c0,0.3-0.1,0.4-0.3,0.5c-0.5,0.2-1,0.3-1.5,0.4c-0.6,0.1-1.2,0.2-1.8,0.1c-1.4,0.1-2.7-0.4-3.8-1.3
	c-0.9-0.8-1.2-2.2-1.2-4v-9.2h-2.5c-0.2,0-0.3-0.1-0.3-0.3v-3.1c0-0.2,0.1-0.3,0.3-0.3h2.5c0-0.4,0.1-1.5,0.1-2.1s0.1-1.1,0.1-1.7
	s0.1-1,0.2-1.4c0-0.1-0.1-0.1-0.1-0.2c0-0.1,0.1-0.1,0.2-0.1l4.2-0.6c0.1,0,0.1,0,0.2,0c0,0,0.1,0.1,0.1,0.2c0,0.6-0.1,1.3-0.1,2.3
	c0,1,0,2.5-0.1,3.4h3.6c0.1,0,0.2,0.1,0.2,0.3v3.1c0,0.1-0.1,0.2-0.2,0.3h-3.7v7.9c-0.1,0.6,0.1,1.3,0.4,1.8
	c0.5,0.4,1.1,0.6,1.8,0.5c0.2,0,0.4,0,0.6,0s0.4,0,0.6-0.1c0.1,0,0.1,0,0.2,0C42.5,34.1,42.6,34.2,42.6,34.3z"/>
</svg>
