<svg xmlns="http://www.w3.org/2000/svg" viewBox="0 0 56 54"><defs><style>.cls-1{fill:#470137;}.cls-2{fill:#ff61f6;}</style></defs><title>Asset 151</title><g id="Layer_2" data-name="Layer 2"><g id="Surfaces"><g id="UI_UX_Surface" data-name="UI/UX Surface"><g id="Outline_no_shadow" data-name="Outline no shadow"><rect class="cls-1" width="56" height="54" rx="9.91383"/></g></g></g><g id="Outlined_Mnemonics_Logos" data-name="Outlined Mnemonics &amp; Logos"><g id="Xd"><path class="cls-2" d="M29.50075,14.41935,22.61892,25.49609,29.9822,37.48763a.38321.38321,0,0,1,.03711.27759c-.02539.08667-.11133.14233-.25928.1665H24.50612a.82946.82946,0,0,1-.77685-.37011c-.49414-.96192-.98731-1.847-1.48047-2.797q-.73975-1.42383-1.57227-2.90454-.832-1.47913-1.64648-2.99683h-.03711q-.74048,1.48023-1.53516,2.96-.79687,1.48023-1.57275,2.94141c-.51807.97485-1.04834,1.87215-1.59131,2.83407a.52385.52385,0,0,1-.51758.333H8.70681a.15065.15065,0,0,1-.166-.148.36769.36769,0,0,1,.05518-.259l7.14111-11.65853L8.781,14.38225c-.07422-.09815-.08594-.17847-.03711-.24048a.27.27,0,0,1,.22216-.09253h5.21729a.77331.77331,0,0,1,.333.05566.67439.67439,0,0,1,.22168.20337c.44433.98682.9375,1.69173,1.48,2.67781q.81372,1.48059,1.64648,2.9231.83277,1.44286,1.53565,2.9231h.03711q.73974-1.51686,1.498-2.96.75879-1.44322,1.5542-2.90454c.53028-.97412,1.04151-1.66048,1.53565-2.62239a.56369.56369,0,0,1,.148-.24048.53585.53585,0,0,1,.29589-.05566h4.84717a.212.212,0,0,1,.18457.37011Z"/><path class="cls-2" d="M39.74489,38.37231a11.46157,11.46157,0,0,1-4.93945-1.03613,7.85547,7.85547,0,0,1-3.46-3.12646,10.00138,10.00138,0,0,1-1.25781-5.2356,9.662,9.662,0,0,1,1.25781-4.84692,9.23787,9.23787,0,0,1,3.66308-3.552,11.82518,11.82518,0,0,1,5.80909-1.332q.1853,0,.481.01856c.19727.01269.61736.03125.88884.05542V12.77108a.59593.59593,0,0,1,.50266-.67042h3.58113a.67086.67086,0,0,1,.6689.6689V33.85815q0,.62952.05518,1.36914.05566.74049.09277,1.33179a.38286.38286,0,0,1-.22168.37012,16.97332,16.97332,0,0,1-3.56975,1.11011A20.06909,20.06909,0,0,1,39.74489,38.37231Zm2.35653-4.58813V23.68311a5.15729,5.15729,0,0,0-.71-.11084,7.34454,7.34454,0,0,0-.75879-.03711,5.7125,5.7125,0,0,0-2.58985.592,4.76156,4.76156,0,0,0-2.70117,4.625,6.52883,6.52883,0,0,0,.38867,2.36792,4.49734,4.49734,0,0,0,1.03614,1.62817,3.944,3.944,0,0,0,1.55371.92481,6.087,6.087,0,0,0,1.90527.29614q.51855,0,.9624-.03711A5.01818,5.01818,0,0,0,42.10142,33.78418Z"/></g></g></g></svg>